<svg width="400" height="200" viewBox="0 0 400 200" fill="none" xmlns="http://www.w3.org/2000/svg">
<rect width="100" height="100" fill="#0F0101"/>
<rect width="400" height="200" fill="#F1F1F1"/>
<path d="M134.21 117V81.4531H139.508L153.204 106.355C153.481 106.86 153.733 107.373 153.961 107.894C154.189 108.414 154.376 108.919 154.522 109.407H154.693C154.661 108.87 154.636 108.309 154.62 107.723C154.62 107.137 154.62 106.575 154.62 106.038V81.4531H159.137V117H153.912L140.118 92C139.858 91.5117 139.614 91.0072 139.386 90.4863C139.158 89.9492 138.963 89.4447 138.8 88.9727H138.653C138.686 89.5098 138.702 90.0794 138.702 90.6816C138.718 91.2676 138.727 91.8291 138.727 92.3662V117H134.21ZM166.946 105.574V104.793C166.946 101.196 167.955 98.2988 169.974 96.1016C171.992 93.888 174.661 92.7812 177.981 92.7812C181.285 92.7812 183.825 93.8148 185.599 95.8818C187.389 97.9326 188.284 100.781 188.284 104.427V106.111H169.754V102.864H183.475V102.547C183.475 100.936 183.035 99.5358 182.156 98.3477C181.277 97.1432 179.894 96.541 178.006 96.541C175.955 96.541 174.409 97.2897 173.367 98.7871C172.342 100.285 171.829 102.205 171.829 104.549V105.623C171.829 108.064 172.382 110.042 173.489 111.556C174.596 113.069 176.224 113.826 178.372 113.826C179.821 113.826 181.049 113.525 182.059 112.923C183.084 112.304 183.898 111.531 184.5 110.604L188.089 112.679C187.373 114.013 186.209 115.169 184.598 116.146C182.986 117.122 180.927 117.61 178.421 117.61C174.775 117.61 171.951 116.512 169.949 114.314C167.947 112.117 166.946 109.204 166.946 105.574ZM192.749 117L201.392 103.792L202.271 103.597L208.716 93.416H213.525L205.249 106.185L204.321 106.307L197.559 117H192.749ZM193.237 93.416H198.633L205.029 103.597L205.469 103.841L214.062 117H208.667L201.904 106.307L201.514 106.087L193.237 93.416ZM219.919 108.748V93.416H224.802V108.553C224.802 110.424 225.201 111.735 225.998 112.483C226.796 113.232 227.927 113.606 229.392 113.606C230.645 113.606 231.752 113.248 232.712 112.532C233.672 111.8 234.429 110.864 234.982 109.725V93.416H239.89V117H235.251L235.129 113.753H235.08C234.299 114.925 233.273 115.844 232.004 116.512C230.734 117.179 229.286 117.513 227.658 117.513C225.314 117.513 223.435 116.845 222.019 115.511C220.619 114.16 219.919 111.906 219.919 108.748ZM247.699 109.7H252.338V110.115C252.338 111.531 252.794 112.557 253.705 113.191C254.633 113.81 255.894 114.119 257.489 114.119C259.068 114.119 260.289 113.834 261.151 113.265C262.014 112.679 262.445 111.84 262.445 110.75C262.445 109.692 262.03 108.903 261.2 108.382C260.37 107.845 258.751 107.291 256.342 106.722C253.656 106.103 251.646 105.249 250.312 104.158C248.977 103.051 248.31 101.513 248.31 99.5439C248.31 97.4769 249.132 95.833 250.775 94.6123C252.419 93.3916 254.657 92.7812 257.489 92.7812C260.289 92.7812 262.527 93.4079 264.203 94.6611C265.88 95.9144 266.718 97.6885 266.718 99.9834V100.35H262.104V99.9346C262.104 98.665 261.705 97.7454 260.907 97.1758C260.11 96.6061 258.954 96.3213 257.44 96.3213C255.959 96.3213 254.853 96.5817 254.12 97.1025C253.404 97.6071 253.046 98.3395 253.046 99.2998C253.046 100.179 253.461 100.879 254.291 101.399C255.121 101.904 256.724 102.441 259.101 103.011C261.786 103.646 263.821 104.508 265.204 105.599C266.588 106.689 267.279 108.235 267.279 110.237C267.279 112.5 266.457 114.29 264.813 115.608C263.186 116.927 260.761 117.586 257.538 117.586C254.348 117.586 251.915 116.927 250.238 115.608C248.562 114.29 247.715 112.451 247.699 110.091V109.7Z" fill="#FE0808"/>
</svg>
